<?xml version="1.0" encoding="utf-8"?>
<!-- Generator: Adobe Illustrator 26.0.3, SVG Export Plug-In . SVG Version: 6.00 Build 0)  -->
<svg version="1.0" id="katman_1" xmlns="http://www.w3.org/2000/svg" xmlns:xlink="http://www.w3.org/1999/xlink" x="0px" y="0px"
	 viewBox="0 0 64.1 50.3" style="enable-background:new 0 0 64.1 50.3;" xml:space="preserve">
<style type="text/css">
	.st0{fill:#191919;}
	.st1{fill:#00B67A;}
	.st2{fill:#005128;}
	.st3{fill:#DCDCE6;}
	.st4{fill:#FFFFFF;}
</style>
<g id="trustpilot-logo">
	<path id="Shape" class="st0" d="M20,17.6h5.2v1h-2V24H22v-5.4h-2L20,17.6L20,17.6z M24.9,19.3h1v0.9h0c0-0.1,0.1-0.2,0.2-0.4
		s0.2-0.2,0.3-0.3c0.1-0.1,0.3-0.2,0.4-0.2c0.1-0.1,0.3-0.1,0.5-0.1c0.1,0,0.2,0,0.2,0c0,0,0.1,0,0.1,0v1c-0.1,0-0.1,0-0.2,0
		c-0.1,0-0.1,0-0.2,0c-0.2,0-0.3,0-0.5,0.1c-0.2,0.1-0.3,0.2-0.4,0.3c-0.1,0.1-0.2,0.3-0.3,0.5c-0.1,0.2-0.1,0.4-0.1,0.7V24h-1
		L24.9,19.3L24.9,19.3z M32.3,24h-1v-0.6h0c-0.1,0.2-0.3,0.4-0.6,0.6c-0.2,0.1-0.5,0.2-0.8,0.2c-0.6,0-1-0.1-1.3-0.5
		s-0.4-0.8-0.4-1.4v-2.9h1v2.8c0,0.4,0.1,0.7,0.2,0.9c0.2,0.2,0.4,0.3,0.7,0.3c0.2,0,0.4,0,0.5-0.1c0.1-0.1,0.3-0.2,0.3-0.3
		c0.1-0.1,0.2-0.2,0.2-0.4s0.1-0.3,0.1-0.5v-2.7h1V24z M34,22.5c0,0.3,0.1,0.5,0.3,0.6c0.2,0.1,0.4,0.2,0.7,0.2c0.1,0,0.2,0,0.3,0
		c0.1,0,0.2,0,0.3-0.1c0.1,0,0.2-0.1,0.3-0.2c0.1-0.1,0.1-0.2,0.1-0.3c0-0.1-0.1-0.2-0.1-0.3c-0.1-0.1-0.2-0.1-0.3-0.2
		c-0.1,0-0.3-0.1-0.5-0.1s-0.4-0.1-0.5-0.1c-0.2,0-0.4-0.1-0.5-0.2s-0.3-0.1-0.5-0.2c-0.1-0.1-0.3-0.2-0.3-0.4
		c-0.1-0.2-0.1-0.4-0.1-0.6c0-0.3,0.1-0.5,0.2-0.6s0.3-0.3,0.5-0.4c0.2-0.1,0.4-0.2,0.6-0.2c0.2,0,0.5-0.1,0.7-0.1
		c0.2,0,0.5,0,0.7,0.1c0.2,0,0.4,0.1,0.6,0.2c0.2,0.1,0.3,0.3,0.4,0.4c0.1,0.2,0.2,0.4,0.2,0.7h-1.1c0-0.2-0.2-0.4-0.3-0.5
		C35.4,20.1,35.2,20,35,20c-0.1,0-0.2,0-0.3,0c-0.1,0-0.2,0-0.3,0.1c-0.1,0-0.2,0.1-0.2,0.1c-0.1,0.1-0.1,0.1-0.1,0.2
		c0,0.1,0,0.2,0.1,0.3c0.1,0.1,0.2,0.1,0.3,0.2c0.1,0,0.3,0.1,0.5,0.1c0.2,0,0.4,0.1,0.6,0.1c0.2,0,0.4,0.1,0.5,0.2
		c0.2,0.1,0.3,0.1,0.5,0.2s0.3,0.2,0.3,0.4c0.1,0.2,0.1,0.3,0.1,0.6c0,0.3-0.1,0.5-0.2,0.7c-0.1,0.2-0.3,0.3-0.5,0.5
		C36.2,23.9,36,24,35.8,24s-0.5,0.1-0.7,0.1c-0.3,0-0.6,0-0.8-0.1c-0.2-0.1-0.5-0.2-0.6-0.3c-0.2-0.1-0.3-0.3-0.4-0.5
		C33.1,23,33,22.8,33,22.5L34,22.5L34,22.5z M37.4,19.3h0.8V18h1v1.4h0.9v0.8h-0.9v2.5c0,0.1,0,0.2,0,0.3c0,0.1,0,0.1,0.1,0.2
		s0.1,0.1,0.1,0.1c0.1,0,0.2,0,0.3,0c0.1,0,0.1,0,0.2,0c0.1,0,0.1,0,0.2,0V24c-0.1,0-0.2,0-0.3,0c-0.1,0-0.2,0-0.3,0
		c-0.3,0-0.5,0-0.6-0.1c-0.2,0-0.3-0.1-0.4-0.2c-0.1-0.1-0.2-0.2-0.2-0.4c0-0.1-0.1-0.3-0.1-0.5v-2.7h-0.8L37.4,19.3L37.4,19.3z
		 M40.8,19.3h1V20h0c0.1-0.3,0.3-0.5,0.6-0.6c0.3-0.1,0.5-0.2,0.8-0.2c0.4,0,0.7,0.1,1,0.2c0.3,0.1,0.5,0.3,0.7,0.5s0.3,0.5,0.4,0.8
		c0.1,0.3,0.1,0.6,0.1,1c0,0.3,0,0.6-0.1,0.9c-0.1,0.3-0.2,0.5-0.4,0.8c-0.2,0.2-0.4,0.4-0.6,0.5c-0.3,0.1-0.5,0.2-0.9,0.2
		c-0.1,0-0.3,0-0.4,0c-0.1,0-0.3-0.1-0.4-0.1c-0.1-0.1-0.3-0.1-0.4-0.2c-0.1-0.1-0.2-0.2-0.3-0.3h0v2.3h-1V19.3L40.8,19.3z
		 M44.4,21.7c0-0.2,0-0.4-0.1-0.6c-0.1-0.2-0.1-0.4-0.2-0.5s-0.2-0.3-0.4-0.4c-0.2-0.1-0.3-0.1-0.6-0.1c-0.4,0-0.8,0.1-1,0.4
		c-0.2,0.3-0.3,0.7-0.3,1.2c0,0.2,0,0.5,0.1,0.6c0.1,0.2,0.1,0.4,0.3,0.5c0.1,0.1,0.2,0.3,0.4,0.3c0.2,0.1,0.3,0.1,0.5,0.1
		c0.2,0,0.4,0,0.6-0.1c0.2-0.1,0.3-0.2,0.4-0.4c0.1-0.2,0.2-0.3,0.2-0.5C44.3,22.1,44.4,21.9,44.4,21.7z M46.2,17.6h1v1h-1V17.6z
		 M46.2,19.3h1V24h-1V19.3z M48.1,17.6h1V24h-1V17.6z M52.2,24.1c-0.4,0-0.7-0.1-1-0.2c-0.3-0.1-0.5-0.3-0.7-0.5
		c-0.2-0.2-0.4-0.5-0.5-0.8c-0.1-0.3-0.2-0.6-0.2-1c0-0.4,0.1-0.7,0.2-1c0.1-0.3,0.3-0.6,0.5-0.8s0.4-0.4,0.7-0.5
		c0.3-0.1,0.6-0.2,1-0.2c0.4,0,0.7,0.1,1,0.2c0.3,0.1,0.5,0.3,0.7,0.5c0.2,0.2,0.4,0.5,0.5,0.8c0.1,0.3,0.2,0.6,0.2,1
		c0,0.4-0.1,0.7-0.2,1c-0.1,0.3-0.3,0.6-0.5,0.8s-0.4,0.4-0.7,0.5C52.9,24,52.6,24.1,52.2,24.1z M52.2,23.3c0.2,0,0.4,0,0.6-0.1
		c0.2-0.1,0.3-0.2,0.4-0.4c0.1-0.2,0.2-0.3,0.2-0.5c0-0.2,0.1-0.4,0.1-0.6c0-0.2,0-0.4-0.1-0.6c0-0.2-0.1-0.4-0.2-0.5
		s-0.2-0.3-0.4-0.4c-0.2-0.1-0.4-0.1-0.6-0.1c-0.2,0-0.4,0-0.6,0.1c-0.2,0.1-0.3,0.2-0.4,0.4c-0.1,0.2-0.2,0.3-0.2,0.5
		c0,0.2-0.1,0.4-0.1,0.6c0,0.2,0,0.4,0.1,0.6c0,0.2,0.1,0.4,0.2,0.5c0.1,0.2,0.2,0.3,0.4,0.4C51.8,23.2,52,23.3,52.2,23.3z
		 M54.9,19.3h0.8V18h1v1.4h0.9v0.8h-0.9v2.5c0,0.1,0,0.2,0,0.3c0,0.1,0,0.1,0.1,0.2s0.1,0.1,0.1,0.1c0.1,0,0.2,0,0.3,0
		c0.1,0,0.1,0,0.2,0c0.1,0,0.1,0,0.2,0V24c-0.1,0-0.2,0-0.3,0c-0.1,0-0.2,0-0.3,0c-0.3,0-0.5,0-0.6-0.1c-0.2,0-0.3-0.1-0.4-0.2
		c-0.1-0.1-0.2-0.2-0.2-0.4c0-0.1-0.1-0.3-0.1-0.5v-2.7h-0.8L54.9,19.3L54.9,19.3z"/>
	<g id="Star">
		<polygon id="Path" class="st1" points="18.8,17.6 14.1,17.6 12.7,13.1 11.2,17.6 6.6,17.6 10.3,20.3 8.9,24.8 12.7,22 16.4,24.8 
			15,20.3 18.8,17.6 		"/>
		<polygon id="Path_00000139974370896774244940000013599419466242447510_" class="st2" points="15.3,21.3 15,20.3 12.7,22 		"/>
	</g>
	<rect id="Rectangle" x="6.6" y="27.6" class="st1" width="9.6" height="9.6"/>
	
		<rect id="Rectangle_00000119823381696065812290000006309620969489227403_" x="16.9" y="27.6" class="st1" width="9.6" height="9.6"/>
	
		<rect id="Rectangle_00000111193577153650357570000000971353195221845171_" x="27.3" y="27.6" class="st1" width="9.6" height="9.6"/>
	
		<rect id="Rectangle_00000008833768892528033700000000322006702697863864_" x="37.6" y="27.6" class="st1" width="9.6" height="9.6"/>
	<rect id="Rectangle_00000134962926880305233990000003318531366453452990_" x="48" y="27.6" class="st3" width="9.6" height="9.6"/>
	<polygon id="Rectangle_00000044876543712720924350000008132246518786235026_" class="st1" points="48,27.6 52.8,27.6 52.8,37.1 
		48,37.1 	"/>
	<path id="Shape_00000004503963772281965500000004689748023012954798_" class="st4" d="M11.3,34l1.5-0.4l0.6,1.9L11.3,34z
		 M14.7,31.6h-2.6l-0.8-2.4l-0.8,2.4H8l2.1,1.5l-0.8,2.4l2.1-1.5l1.3-0.9L14.7,31.6L14.7,31.6L14.7,31.6L14.7,31.6z"/>
	<path id="Shape_00000062892359206520126170000006215398374882685355_" class="st4" d="M21.7,34l1.5-0.4l0.6,1.9L21.7,34z M25,31.6
		h-2.6l-0.8-2.4l-0.8,2.4h-2.6l2.1,1.5l-0.8,2.4l2.1-1.5l1.3-0.9L25,31.6L25,31.6L25,31.6L25,31.6z"/>
	<path id="Shape_00000041986034659674372480000017210300048664811149_" class="st4" d="M32.1,34l1.5-0.4l0.6,1.9L32.1,34z
		 M35.4,31.6h-2.6l-0.8-2.4l-0.8,2.4h-2.6l2.1,1.5L30,35.5l2.1-1.5l1.3-0.9L35.4,31.6L35.4,31.6L35.4,31.6L35.4,31.6z"/>
	<path id="Shape_00000155124147350657945740000004241176506388462744_" class="st4" d="M42.4,34l1.5-0.4l0.6,1.9L42.4,34z
		 M45.8,31.6h-2.6l-0.8-2.4l-0.8,2.4h-2.6l2.1,1.5l-0.8,2.4l2.1-1.5l1.3-0.9L45.8,31.6L45.8,31.6L45.8,31.6L45.8,31.6z"/>
	<path id="Shape_00000131362776327819300620000011855054010791946398_" class="st4" d="M52.8,34l1.5-0.4l0.6,1.9L52.8,34z
		 M56.1,31.6h-2.6l-0.8-2.4L52,31.6h-2.6l2.1,1.5l-0.8,2.4l2.1-1.5l1.3-0.9L56.1,31.6L56.1,31.6L56.1,31.6L56.1,31.6z"/>
</g>
</svg>
